<svg width="40" height="40" viewBox="0 0 40 40" fill="none" xmlns="http://www.w3.org/2000/svg">
  <!-- Starting point location - Green bordered house with flag -->
  <g filter="url(#shadow)">
    <!-- Green highlight border (starting point indicator) -->
    <circle cx="20" cy="20" r="18" fill="none" stroke="#10b981" stroke-width="3" opacity="0.5"/>

    <!-- House base -->
    <path d="M20 6L8 16V32C8 33.1 8.9 34 10 34H30C31.1 34 32 33.1 32 32V16L20 6Z" fill="#10b981" stroke="#065f46" stroke-width="1.5"/>

    <!-- Roof -->
    <path d="M20 4L6 16H34L20 4Z" fill="#059669" stroke="#065f46" stroke-width="1.5"/>

    <!-- Door -->
    <rect x="16" y="24" width="8" height="10" rx="1" fill="#065f46"/>

    <!-- Windows with bright glow (welcoming) -->
    <rect x="12" y="18" width="6" height="5" rx="1" fill="#fef3c7"/>
    <rect x="22" y="18" width="6" height="5" rx="1" fill="#fef3c7"/>

    <!-- Starting flag indicator -->
    <path d="M28 8V14M28 8L32 10L28 12" stroke="#fbbf24" stroke-width="1.5" fill="#fbbf24"/>
  </g>

  <defs>
    <filter id="shadow" x="0" y="0" width="40" height="44" filterUnits="userSpaceOnUse">
      <feGaussianBlur in="SourceAlpha" stdDeviation="1"/>
      <feOffset dy="2"/>
      <feComponentTransfer>
        <feFuncA type="linear" slope="0.3"/>
      </feComponentTransfer>
      <feMerge>
        <feMergeNode/>
        <feMergeNode in="SourceGraphic"/>
      </feMerge>
    </filter>
  </defs>
</svg>
