<svg width="40" height="40" viewBox="0 0 40 40" fill="none" xmlns="http://www.w3.org/2000/svg">
  <!-- Location with activity - Pink/purple house with activity badge -->
  <g filter="url(#shadow)">
    <!-- House base -->
    <path d="M20 6L8 16V32C8 33.1 8.9 34 10 34H30C31.1 34 32 33.1 32 32V16L20 6Z" fill="#ec4899" stroke="#831843" stroke-width="1.5"/>

    <!-- Roof -->
    <path d="M20 4L6 16H34L20 4Z" fill="#db2777" stroke="#831843" stroke-width="1.5"/>

    <!-- Door -->
    <rect x="16" y="24" width="8" height="10" rx="1" fill="#831843"/>

    <!-- Windows with colorful glow (activity) -->
    <rect x="12" y="18" width="6" height="5" rx="1" fill="#fde047"/>
    <rect x="22" y="18" width="6" height="5" rx="1" fill="#a78bfa"/>

    <!-- Activity indicator - Star badge -->
    <circle cx="30" cy="10" r="5" fill="#fbbf24"/>
    <path d="M30 7L30.8 9.2L33 10L30.8 10.8L30 13L29.2 10.8L27 10L29.2 9.2L30 7Z" fill="white"/>
  </g>

  <defs>
    <filter id="shadow" x="0" y="0" width="40" height="44" filterUnits="userSpaceOnUse">
      <feGaussianBlur in="SourceAlpha" stdDeviation="1"/>
      <feOffset dy="2"/>
      <feComponentTransfer>
        <feFuncA type="linear" slope="0.3"/>
      </feComponentTransfer>
      <feMerge>
        <feMergeNode/>
        <feMergeNode in="SourceGraphic"/>
      </feMerge>
    </filter>
  </defs>
</svg>
