<svg width="40" height="40" viewBox="0 0 40 40" fill="none" xmlns="http://www.w3.org/2000/svg">
  <!-- Store/shop location -->
  <g filter="url(#shadow)">
    <!-- Building -->
    <rect x="10" y="18" width="20" height="14" rx="1" fill="#f59e0b" stroke="#78350f" stroke-width="1.5"/>

    <!-- Awning -->
    <path d="M8 18 L10 14 L30 14 L32 18 Z" fill="#ea580c" stroke="#78350f" stroke-width="1.5"/>
    <path d="M8 18 L32 18 L32 20 L8 20 Z" fill="#c2410c" stroke="#78350f" stroke-width="1"/>

    <!-- Awning stripes -->
    <line x1="14" y1="14" x2="14" y2="18" stroke="#dc2626" stroke-width="1.5"/>
    <line x1="20" y1="14" x2="20" y2="18" stroke="#dc2626" stroke-width="1.5"/>
    <line x1="26" y1="14" x2="26" y2="18" stroke="#dc2626" stroke-width="1.5"/>

    <!-- Door -->
    <rect x="15" y="23" width="5" height="9" rx="0.5" fill="#78350f" stroke="#451a03" stroke-width="1"/>
    <circle cx="18" cy="27" r="0.5" fill="#fbbf24"/>

    <!-- Window -->
    <rect x="22" y="22" width="6" height="5" rx="0.5" fill="#312e81" opacity="0.6" stroke="#78350f" stroke-width="1"/>
    <line x1="25" y1="22" x2="25" y2="27" stroke="#78350f" stroke-width="0.5"/>
    <line x1="22" y1="24.5" x2="28" y2="24.5" stroke="#78350f" stroke-width="0.5"/>

    <!-- Candy/product display in window -->
    <circle cx="23.5" cy="23.5" r="0.8" fill="#f97316"/>
    <circle cx="26.5" cy="25.5" r="0.8" fill="#fbbf24"/>
  </g>

  <defs>
    <filter id="shadow" x="0" y="0" width="40" height="44" filterUnits="userSpaceOnUse">
      <feGaussianBlur in="SourceAlpha" stdDeviation="1"/>
      <feOffset dy="2"/>
      <feComponentTransfer>
        <feFuncA type="linear" slope="0.3"/>
      </feComponentTransfer>
      <feMerge>
        <feMergeNode/>
        <feMergeNode in="SourceGraphic"/>
      </feMerge>
    </filter>
  </defs>
</svg>
